 <svg  version="1.0" xmlns="http://www.w3.org/2000/svg"  width="300.000000pt" height="56.000000pt" viewBox="0 0 300.000000 56.000000"  preserveAspectRatio="xMidYMid meet">  <g transform="translate(0.000000,56.000000) scale(0.100000,-0.100000)" fill="#ffffff" stroke="none"> <path d="M0 280 l0 -280 1500 0 1500 0 0 280 0 280 -1500 0 -1500 0 0 -280z m2970 0 l0 -250 -1470 0 -1470 0 0 250 0 250 1470 0 1470 0 0 -250z"/> <path d="M90 473 c-1 -2 -1 -89 -1 -193 l0 -190 1411 0 1412 0 -1 190 0 190 -1411 3 c-775 1 -1410 1 -1410 0z m207 -94 c49 -19 59 -66 19 -96 l-24 -18 21 -30 c12 -16 27 -34 34 -38 22 -13 15 -27 -14 -27 -22 0 -34 10 -56 45 -34 52 -47 57 -47 15 0 -20 5 -30 15 -30 8 0 15 -7 15 -15 0 -11 -12 -15 -45 -15 -33 0 -45 4 -45 15 0 8 5 15 10 15 6 0 10 33 10 80 0 47 -4 80 -10 80 -5 0 -10 7 -10 15 0 18 83 21 127 4z m231 -21 c2 -20 -1 -28 -12 -28 -9 0 -16 6 -16 14 0 16 -34 31 -50 21 -17 -10 -12 -75 5 -75 8 0 15 7 15 15 0 8 7 15 15 15 17 0 22 -65 5 -75 -5 -3 -10 -2 -10 4 0 6 -9 15 -20 21 -18 10 -20 8 -20 -30 0 -38 1 -40 31 -40 22 0 32 5 36 20 9 35 29 23 25 -15 l-4 -35 -79 0 c-79 0 -92 6 -64 30 11 9 15 33 15 86 0 59 -3 74 -15 74 -8 0 -15 7 -15 15 0 13 13 15 78 13 76 -3 77 -3 80 -30z m212 -5 c0 -38 -20 -44 -35 -10 -12 28 -51 34 -75 12 -38 -35 -31 -133 11 -156 22 -12 56 -4 82 19 9 8 20 12 25 8 4 -4 -6 -19 -21 -32 -67 -58 -167 -11 -167 78 1 82 40 118 128 116 l52 -2 0 -33z m120 27 c0 -6 -7 -13 -15 -16 -23 -9 -22 -164 1 -164 35 0 4 -25 -34 -28 -33 -2 -42 0 -42 12 0 9 5 16 10 16 6 0 10 33 10 80 0 47 -4 80 -10 80 -5 0 -10 7 -10 15 0 11 12 15 45 15 25 0 45 -5 45 -10z m154 0 c75 -28 41 -130 -44 -130 -25 0 -29 -45 -4 -54 28 -11 4 -26 -42 -26 -46 0 -54 9 -29 30 11 9 15 33 15 86 0 59 -3 74 -15 74 -8 0 -15 7 -15 15 0 11 13 15 54 15 30 0 66 -4 80 -10z m214 -22 c2 -20 -1 -28 -12 -28 -9 0 -16 6 -16 14 0 16 -34 31 -50 21 -17 -10 -12 -75 5 -75 8 0 15 7 15 15 0 8 7 15 15 15 17 0 22 -65 5 -75 -5 -3 -10 -2 -10 4 0 6 -9 15 -20 21 -18 10 -20 8 -20 -30 0 -38 1 -40 31 -40 22 0 32 5 36 20 9 35 29 23 25 -15 l-4 -35 -79 0 c-79 0 -92 6 -64 30 11 9 15 33 15 86 0 59 -3 74 -15 74 -8 0 -15 7 -15 15 0 13 13 15 78 13 76 -3 77 -3 80 -30z m247 18 c27 -12 35 -21 35 -41 0 -35 -17 -65 -37 -65 -11 0 -5 -12 21 -44 20 -24 36 -47 36 -51 0 -3 -12 -5 -27 -3 -19 2 -36 16 -56 46 -33 50 -46 53 -45 12 1 -18 6 -30 15 -30 7 0 13 -7 13 -15 0 -11 -12 -15 -45 -15 -33 0 -45 4 -45 15 0 8 5 15 10 15 6 0 10 33 10 80 0 47 -4 80 -10 80 -5 0 -10 7 -10 15 0 20 88 20 135 1z m225 -16 c0 -35 -10 -38 -28 -9 -8 13 -21 19 -35 17 -18 -2 -23 -11 -25 -40 -3 -33 0 -38 18 -38 16 0 20 5 16 15 -3 9 0 15 9 15 17 0 21 -65 5 -75 -5 -3 -10 -2 -10 4 0 6 -9 15 -20 21 -18 10 -20 8 -20 -30 0 -38 2 -40 30 -40 19 0 34 7 42 20 19 29 28 24 28 -15 l0 -35 -80 0 c-64 0 -80 3 -80 15 0 8 5 15 10 15 6 0 10 33 10 79 0 62 -3 80 -16 85 -34 13 1 26 72 26 l74 0 0 -30z m165 20 c72 -28 37 -130 -45 -130 -15 0 -20 -7 -20 -25 0 -14 5 -25 10 -25 6 0 10 -7 10 -15 0 -11 -12 -15 -45 -15 -47 0 -56 9 -30 30 11 9 15 33 15 86 0 59 -3 74 -15 74 -8 0 -15 7 -15 15 0 11 13 15 54 15 30 0 66 -4 81 -10z m145 0 c0 -6 -7 -13 -15 -16 -11 -5 -15 -22 -15 -68 0 -87 32 -126 80 -96 20 12 31 160 13 160 -7 0 -13 7 -13 15 0 10 11 15 35 15 24 0 35 -5 35 -15 0 -8 -4 -15 -10 -15 -6 0 -10 -30 -10 -70 0 -62 -3 -74 -25 -95 -33 -34 -87 -34 -120 0 -22 21 -25 33 -25 95 0 40 -4 70 -10 70 -5 0 -10 7 -10 15 0 11 12 15 45 15 25 0 45 -5 45 -10z m270 -3 c35 -17 39 -61 8 -78 l-23 -13 25 -6 c15 -3 29 -17 34 -33 8 -23 6 -31 -12 -49 -17 -18 -36 -23 -92 -26 -70 -4 -85 3 -55 28 11 9 15 33 15 86 0 59 -3 74 -15 74 -8 0 -15 7 -15 15 0 19 93 21 130 2z m160 3 c0 -6 -7 -13 -15 -16 -12 -5 -15 -24 -15 -85 l0 -79 35 0 c29 0 36 4 41 25 10 39 24 30 24 -15 l0 -40 -80 0 c-64 0 -80 3 -80 15 0 8 5 15 10 15 6 0 10 33 10 80 0 47 -4 80 -10 80 -5 0 -10 7 -10 15 0 11 12 15 45 15 25 0 45 -5 45 -10z m180 1 c0 -5 -7 -14 -15 -21 -11 -9 -15 -33 -15 -86 0 -59 3 -74 15 -74 8 0 15 -7 15 -15 0 -11 -12 -15 -45 -15 -33 0 -45 4 -45 15 0 8 5 15 10 15 6 0 10 33 10 80 0 47 -4 80 -10 80 -5 0 -10 7 -10 15 0 11 12 15 45 15 25 0 45 -4 45 -9z m200 -28 c0 -40 -8 -41 -36 -6 -19 24 -25 26 -50 18 -52 -19 -64 -129 -17 -163 21 -15 60 -8 86 15 9 9 20 13 25 9 12 -13 -47 -56 -78 -56 -66 0 -110 45 -110 112 1 72 45 108 128 106 52 -2 52 -2 52 -35z"/> <path d="M237 363 c-4 -3 -7 -24 -7 -45 0 -37 2 -39 26 -36 37 4 50 42 24 68 -21 21 -32 24 -43 13z"/> <path d="M957 363 c-11 -11 -8 -93 4 -93 27 0 49 22 49 50 0 33 -35 62 -53 43z"/> <path d="M1413 357 c-4 -7 -8 -27 -9 -44 -1 -28 3 -33 22 -33 27 0 48 32 39 59 -7 22 -42 34 -52 18z"/> <path d="M1807 363 c-4 -3 -7 -26 -7 -50 0 -47 15 -56 44 -27 22 21 20 61 -3 74 -23 12 -26 12 -34 3z"/> <path d="M2227 364 c-4 -4 -7 -23 -7 -41 0 -27 4 -34 16 -31 26 5 41 35 28 55 -12 20 -27 26 -37 17z"/> <path d="M2220 232 c0 -39 1 -40 28 -33 22 6 27 13 27 37 0 24 -4 30 -27 32 -26 3 -28 1 -28 -36z"/> </g> </svg> 